<svg xmlns="http://www.w3.org/2000/svg" viewBox="0 0 760 150" width="760" height="150"><defs>
<linearGradient id="rib" x1="0" y1="0" x2="0" y2="1">
  <stop offset="0%" stop-color="#EFB120"/><stop offset="55%" stop-color="#EFB120"/>
  <stop offset="100%" stop-color="#C4820C"/></linearGradient>
<linearGradient id="bdg" x1="0.2" y1="0" x2="0.8" y2="1">
  <stop offset="0%" stop-color="#F3C13A"/><stop offset="100%" stop-color="#C4820C"/></linearGradient>
<filter id="sh" x="-20%" y="-30%" width="150%" height="180%">
  <feDropShadow dx="0" dy="5" stdDeviation="7" flood-color="#000000" flood-opacity="0.28"/></filter>
</defs><g filter="url(#sh)"><polygon points="150,40 706,40 654,132 150,132" fill="#9E6704"/><polygon points="118,26 692,26 640,118 118,118" fill="url(#rib)"/><polygon points="118,26 692,26 686,37 118,37" fill="#FFFFFF" opacity="0.22"/><polygon points="620,26 664,26 612,118 568,118" fill="#C4820C" opacity="0.55"/><polygon points="700,26 730,26 678,118 648,118" fill="#C4820C"/></g><g filter="url(#sh)"><polygon points="140.8,98.0 104.0,134.8 52.0,134.8 15.2,98.0 15.2,46.0 52.0,9.2 104.0,9.2 140.8,46.0" fill="#FFFFFF"/><polygon points="133.4,95.0 101.0,127.4 55.0,127.4 22.6,95.0 22.6,49.0 55.0,16.6 101.0,16.6 133.4,49.0" fill="url(#bdg)"/><polygon points="133.4,95.0 101.0,127.4 55.0,127.4 22.6,95.0 22.6,49.0 55.0,16.6 101.0,16.6 133.4,49.0" fill="#FFFFFF" opacity="0.10"/></g><g transform="translate(35.0,29.0) scale(0.86)"><g fill="#FFFFFF"><path d="M30,26 C15,26 15,50 32,54 L32,45 C24,42 24,34 32,33 Z"/><path d="M70,26 C85,26 85,50 68,54 L68,45 C76,42 76,34 68,33 Z"/><rect x="26" y="16" width="48" height="12" rx="5"/><path d="M31,28 H69 V50 C69,64 60,72 50,72 C40,72 31,64 31,50 Z"/><rect x="45" y="70" width="10" height="10"/><path d="M33,80 H67 L72,88 H28 Z"/></g></g></svg>
